<svg xmlns="http://www.w3.org/2000/svg" viewBox="0 0 96 96">
  <defs>
    <linearGradient id="g" x1="12" y1="78" x2="84" y2="18" gradientUnits="userSpaceOnUse">
      <stop stop-color="#4338ca" />
      <stop offset="1" stop-color="#22c7f5" />
    </linearGradient>
  </defs>
  <rect width="96" height="96" rx="24" fill="white" />
  <path d="M33 26c-11 10-17 24-17 39 0 23 18 41 41 41 13 0 25-5 34-14" fill="none" stroke="url(#g)" stroke-width="6" stroke-linecap="round" />
  <path d="M39 25v38c0 3 2 5 5 5h25" fill="none" stroke="url(#g)" stroke-width="6" stroke-linecap="round" stroke-linejoin="round" />
  <path d="M54 38h20c8 0 14 6 14 14s-6 14-14 14H62c-8 0-14-6-14-14s6-14 14-14" fill="none" stroke="url(#g)" stroke-width="6" stroke-linecap="round" stroke-linejoin="round" />
  <path d="M46 18h25c18 0 33 15 33 33 0 8-1 13-3 19" fill="none" stroke="url(#g)" stroke-width="6" stroke-linecap="round" opacity="0.9" />
</svg>
